<svg width="361" height="62" viewBox="0 0 361 62" fill="none" xmlns="http://www.w3.org/2000/svg">
<g clip-path="url(#clip0)">
<path d="M61.0668 54H28.1847L0 13.7288H32.8821L61.0668 54Z" fill="#4398D1"/>
<path d="M54.0206 18.3051C58.5607 18.3051 62.2412 15.4367 62.2412 11.8983C62.2412 8.35994 58.5607 5.49153 54.0206 5.49153C49.4806 5.49153 45.8001 8.35994 45.8001 11.8983C45.8001 15.4367 49.4806 18.3051 54.0206 18.3051Z" fill="#FDB62F"/>
<path d="M52.8463 0H55.195V2.74576H52.8463V0Z" fill="#FDB62F"/>
<path d="M52.8463 21.0508H55.195V23.7966H52.8463V21.0508Z" fill="#FDB62F"/>
<path d="M38.7539 10.9831H42.277V12.8136H38.7539V10.9831Z" fill="#FDB62F"/>
<path d="M65.7643 10.9831H69.2873V12.8136H65.7643V10.9831Z" fill="#FDB62F"/>
<path d="M42.3943 4.13214L44.0551 2.83774L46.5464 4.77934L44.8856 6.07373L42.3943 4.13214Z" fill="#FDB62F"/>
<path d="M61.4952 19.0142L63.156 17.7198L65.6473 19.6614L63.9864 20.9558L61.4952 19.0142Z" fill="#FDB62F"/>
<path d="M42.3947 19.6645L44.886 17.7229L46.5469 19.0173L44.0556 20.9589L42.3947 19.6645Z" fill="#FDB62F"/>
<path d="M61.4946 4.77889L63.9858 2.83729L65.6467 4.13169L63.1554 6.07329L61.4946 4.77889Z" fill="#FDB62F"/>
<path d="M49.1412 17.0457C52.7855 19.1492 57.9276 18.552 60.6266 15.7117C62.7447 13.4827 62.7793 10.444 60.7122 8.18604C57.9492 11.8974 53.9514 14.9583 49.1412 17.0457Z" fill="#F7A72E"/>
<path d="M0 13.7288V20.1356L23.4872 54H28.1847L0 13.7288Z" fill="#DEDEDE"/>
<path d="M21.829 44.9188L28.1847 54H61.0668L43.1061 28.3372L21.829 44.9188Z" fill="#3E8CC7"/>
<path d="M44.2171 43.0169L38.4404 34.7797H47.6145L46.3345 32.9492H37.1568L31.3801 24.7119H40.5683L39.2883 22.8814H30.0966L23.6787 13.7288H21.0011L27.419 22.8814H19.5273L13.1094 13.7288H10.4319L16.8497 22.8814H6.40614L7.6862 24.7119H18.138L23.9147 32.9492H13.4629L14.7429 34.7797H25.2042L30.9808 43.0169H20.4985L21.7785 44.8475H32.2539L38.6717 54H41.3493L34.9314 44.8475H42.8231L49.241 54H51.9185L45.5007 44.8475H54.6607L53.3806 43.0169H44.2171ZM20.8109 24.7119H28.7026L34.4793 32.9492H26.5876L20.8109 24.7119ZM33.6478 43.0169L27.8711 34.7797H35.7628L41.5395 43.0169H33.6478Z" fill="#3570AB"/>
</g>
<g filter="url(#filter0_d)">
<path d="M133.117 21.0859C133.117 19.7891 132.406 18.6797 130.984 17.7578C130.781 17.6484 129.961 17.2109 128.523 16.4453C127.211 15.7578 126.391 15.0781 126.062 14.4062C125.906 14.0781 125.828 13.7344 125.828 13.375C125.828 12.4531 126.273 11.8438 127.164 11.5469C127.461 11.4531 127.773 11.4062 128.102 11.4062C129.383 11.4062 130.344 11.8906 130.984 12.8594C131.375 13.4688 131.578 14.1953 131.594 15.0391H132.508V10.7969C132.07 10.7969 131.812 10.9453 131.734 11.2422C131.719 11.3516 131.711 11.4766 131.711 11.6172C130.414 11.0078 129.047 10.7031 127.609 10.7031C125.719 10.7031 124.297 11.1953 123.344 12.1797C122.734 12.8203 122.43 13.5781 122.43 14.4531C122.43 15.75 123.172 16.8594 124.656 17.7812C124.844 17.9062 125.688 18.3516 127.188 19.1172C128.531 19.8203 129.367 20.5 129.695 21.1562C129.836 21.4688 129.906 21.7891 129.906 22.1172C129.906 23.2422 129.406 23.9922 128.406 24.3672C128.047 24.4922 127.648 24.5547 127.211 24.5547C125.555 24.5547 124.391 23.7969 123.719 22.2812C123.438 21.6406 123.266 20.9062 123.203 20.0781H122.289V25.0469C122.711 25.0469 122.961 24.9219 123.039 24.6719C123.07 24.5156 123.086 24.3047 123.086 24.0391C124.289 24.8359 125.742 25.2344 127.445 25.2344C129.43 25.2344 130.953 24.7266 132.016 23.7109C132.75 22.9922 133.117 22.1172 133.117 21.0859ZM148.619 24.3906H147.822V14.9219H143.697V15.5312H144.845L144.822 21.4375C144.712 22.6562 144.267 23.4609 143.486 23.8516C143.252 23.9609 143.017 24.0156 142.783 24.0156C141.892 24.0156 141.369 23.4922 141.212 22.4453C141.181 22.2422 141.166 22.0312 141.166 21.8125V14.9219H136.83V15.5312H138.189V21.4141C138.22 23.9453 139.337 25.2188 141.541 25.2344C142.947 25.2344 144.017 24.6094 144.752 23.3594C144.798 23.2656 144.845 23.1719 144.892 23.0781L145.009 25H149.181C149.181 24.6562 149.087 24.4609 148.9 24.4141C148.822 24.3984 148.728 24.3906 148.619 24.3906ZM157.441 24.3906H156.855L156.878 18.3906C156.987 17.1562 157.441 16.3438 158.237 15.9531C158.456 15.8438 158.683 15.7891 158.917 15.7891C159.808 15.7891 160.331 16.3125 160.487 17.3594C160.519 17.5625 160.534 17.7734 160.534 17.9922V23.1719C160.534 23.8281 160.362 24.2109 160.019 24.3203C159.862 24.3672 159.675 24.3906 159.456 24.3906V25H164.87C164.87 24.6406 164.769 24.4453 164.566 24.4141C164.472 24.3984 164.378 24.3906 164.284 24.3906H163.511V18.3906C163.511 16.4531 162.823 15.2422 161.448 14.7578C161.073 14.6328 160.683 14.5703 160.277 14.5703C159.136 14.5703 158.167 15.0234 157.37 15.9297C157.136 16.1953 156.948 16.4688 156.808 16.75L156.691 14.9219H152.519V15.5312H153.878V23.1719C153.878 23.8906 153.542 24.2891 152.87 24.3672C152.761 24.3828 152.644 24.3906 152.519 24.3906V25H158.003C158.003 24.6406 157.902 24.4453 157.698 24.4141C157.62 24.3984 157.534 24.3906 157.441 24.3906ZM175.122 25V24.3672H173.247V18.5781H174.395L177.888 25.0234L182.013 25C182.013 24.6562 181.888 24.4609 181.638 24.4141C181.559 24.3984 181.481 24.3906 181.403 24.3906H181.098L177.489 18.2969C179.13 17.8438 180.138 16.9531 180.513 15.625C180.606 15.2969 180.653 14.9609 180.653 14.6172C180.653 13.4609 180.138 12.5312 179.106 11.8281C178.231 11.2344 177.169 10.9375 175.919 10.9375H168.091V11.5703H169.966V24.3672H168.091V25H175.122ZM174.513 11.5703C175.794 11.5703 176.622 12.2031 176.997 13.4688C177.106 13.875 177.161 14.2969 177.161 14.7344C177.161 16.0781 176.755 17.0078 175.942 17.5234C175.583 17.7578 175.169 17.875 174.7 17.875H173.247V11.5703H174.513ZM193.506 25.2344C194.647 25.2344 195.358 24.8203 195.639 23.9922C195.733 23.6797 195.803 23.2812 195.85 22.7969L195.241 22.7734C195.147 23.8516 194.873 24.3984 194.42 24.4141C194.077 24.3828 193.905 23.9922 193.905 23.2422V18.3438C193.905 16.3906 192.998 15.1875 191.186 14.7344C190.717 14.625 190.209 14.5703 189.662 14.5703C187.537 14.5703 186.202 15.0312 185.655 15.9531C185.514 16.1875 185.444 16.4375 185.444 16.7031C185.444 17.3125 185.733 17.6953 186.311 17.8516C186.452 17.8984 186.6 17.9219 186.756 17.9219C187.428 17.9219 187.881 17.5938 188.116 16.9375C188.147 16.8438 188.194 16.6875 188.256 16.4688C188.428 15.8438 188.647 15.4531 188.912 15.2969C189.084 15.2188 189.28 15.1797 189.498 15.1797C190.233 15.1797 190.678 15.625 190.834 16.5156C190.897 16.8438 190.928 17.2344 190.928 17.6875V19.2109C186.912 19.2891 184.897 20.3516 184.881 22.3984C184.881 23.7891 185.491 24.6797 186.709 25.0703C187.069 25.1797 187.467 25.2344 187.905 25.2344C189.233 25.2344 190.209 24.7344 190.834 23.7344C190.959 23.5312 191.061 23.3203 191.139 23.1016C191.467 24.4453 192.256 25.1562 193.506 25.2344ZM189.123 24.2266C188.342 24.1953 187.944 23.5 187.928 22.1406C187.928 21.1094 188.35 20.4375 189.194 20.125C189.647 19.9844 190.225 19.8984 190.928 19.8672V22.1406C190.631 23.2344 190.155 23.9062 189.498 24.1562C189.358 24.2031 189.233 24.2266 189.123 24.2266ZM201.414 28.75C201.133 28.75 200.906 28.5391 200.734 28.1172C200.516 27.5703 200.32 27.2266 200.148 27.0859C199.945 26.9453 199.711 26.875 199.445 26.875C198.883 26.875 198.523 27.1172 198.367 27.6016C198.336 27.7266 198.32 27.8438 198.32 27.9531C198.32 28.4688 198.633 28.8906 199.258 29.2188C199.695 29.4531 200.203 29.5703 200.781 29.5703C202.094 29.5703 203.18 28.8125 204.039 27.2969C204.367 26.75 204.68 26.0859 204.977 25.3047L208.492 16.1875C208.758 15.7656 209.016 15.5391 209.266 15.5078C209.609 15.5078 209.797 15.3906 209.828 15.1562C209.844 15.0781 209.852 15 209.852 14.9219H206.219V15.5078H207.977L205.422 22.0469L202.586 15.5078H204.016V14.9219H198.508V15.5078H199.492L204.062 25.4922C203.312 27.3516 202.594 28.4062 201.906 28.6562C201.734 28.7188 201.57 28.75 201.414 28.75ZM231.339 21.0859C231.339 19.7891 230.628 18.6797 229.206 17.7578C229.003 17.6484 228.183 17.2109 226.745 16.4453C225.433 15.7578 224.613 15.0781 224.284 14.4062C224.128 14.0781 224.05 13.7344 224.05 13.375C224.05 12.4531 224.495 11.8438 225.386 11.5469C225.683 11.4531 225.995 11.4062 226.323 11.4062C227.605 11.4062 228.566 11.8906 229.206 12.8594C229.597 13.4688 229.8 14.1953 229.816 15.0391H230.73V10.7969C230.292 10.7969 230.034 10.9453 229.956 11.2422C229.941 11.3516 229.933 11.4766 229.933 11.6172C228.636 11.0078 227.269 10.7031 225.831 10.7031C223.941 10.7031 222.519 11.1953 221.566 12.1797C220.956 12.8203 220.652 13.5781 220.652 14.4531C220.652 15.75 221.394 16.8594 222.878 17.7812C223.066 17.9062 223.909 18.3516 225.409 19.1172C226.753 19.8203 227.589 20.5 227.917 21.1562C228.058 21.4688 228.128 21.7891 228.128 22.1172C228.128 23.2422 227.628 23.9922 226.628 24.3672C226.269 24.4922 225.87 24.5547 225.433 24.5547C223.777 24.5547 222.613 23.7969 221.941 22.2812C221.659 21.6406 221.488 20.9062 221.425 20.0781H220.511V25.0469C220.933 25.0469 221.183 24.9219 221.261 24.6719C221.292 24.5156 221.308 24.3047 221.308 24.0391C222.511 24.8359 223.964 25.2344 225.667 25.2344C227.652 25.2344 229.175 24.7266 230.238 23.7109C230.972 22.9922 231.339 22.1172 231.339 21.0859ZM238.614 19.9141C238.614 17.7266 238.88 16.3281 239.411 15.7188C239.739 15.3594 240.2 15.1797 240.794 15.1797C241.794 15.1797 242.434 15.6875 242.716 16.7031C242.903 17.3594 242.997 18.3984 242.997 19.8203C242.997 22.1016 242.7 23.5391 242.106 24.1328C241.762 24.4609 241.317 24.625 240.77 24.625C239.802 24.625 239.177 24.125 238.895 23.125C238.708 22.4531 238.614 21.3828 238.614 19.9141ZM240.911 14.5703C238.989 14.5703 237.512 15.2266 236.481 16.5391C235.762 17.4766 235.403 18.5703 235.403 19.8203C235.403 21.5859 236.012 22.9844 237.231 24.0156C238.2 24.8281 239.356 25.2344 240.7 25.2344C242.544 25.2344 243.989 24.5703 245.036 23.2422C245.817 22.2422 246.208 21.0859 246.208 19.7734C246.208 18.0234 245.591 16.6562 244.356 15.6719C243.403 14.9375 242.255 14.5703 240.911 14.5703ZM255.639 24.3906H254.467V9.76562H249.663V10.375H251.491V23.125C251.491 23.7656 251.233 24.1562 250.717 24.2969C250.452 24.3594 250.1 24.3906 249.663 24.3906V25H256.202C256.202 24.6406 256.1 24.4453 255.897 24.4141C255.819 24.3984 255.733 24.3906 255.639 24.3906ZM268.117 25.2344C269.258 25.2344 269.969 24.8203 270.25 23.9922C270.344 23.6797 270.414 23.2812 270.461 22.7969L269.852 22.7734C269.758 23.8516 269.484 24.3984 269.031 24.4141C268.688 24.3828 268.516 23.9922 268.516 23.2422V18.3438C268.516 16.3906 267.609 15.1875 265.797 14.7344C265.328 14.625 264.82 14.5703 264.273 14.5703C262.148 14.5703 260.812 15.0312 260.266 15.9531C260.125 16.1875 260.055 16.4375 260.055 16.7031C260.055 17.3125 260.344 17.6953 260.922 17.8516C261.062 17.8984 261.211 17.9219 261.367 17.9219C262.039 17.9219 262.492 17.5938 262.727 16.9375C262.758 16.8438 262.805 16.6875 262.867 16.4688C263.039 15.8438 263.258 15.4531 263.523 15.2969C263.695 15.2188 263.891 15.1797 264.109 15.1797C264.844 15.1797 265.289 15.625 265.445 16.5156C265.508 16.8438 265.539 17.2344 265.539 17.6875V19.2109C261.523 19.2891 259.508 20.3516 259.492 22.3984C259.492 23.7891 260.102 24.6797 261.32 25.0703C261.68 25.1797 262.078 25.2344 262.516 25.2344C263.844 25.2344 264.82 24.7344 265.445 23.7344C265.57 23.5312 265.672 23.3203 265.75 23.1016C266.078 24.4453 266.867 25.1562 268.117 25.2344ZM263.734 24.2266C262.953 24.1953 262.555 23.5 262.539 22.1406C262.539 21.1094 262.961 20.4375 263.805 20.125C264.258 19.9844 264.836 19.8984 265.539 19.8672V22.1406C265.242 23.2344 264.766 23.9062 264.109 24.1562C263.969 24.2031 263.844 24.2266 263.734 24.2266ZM279.517 24.3906H277.783V19.3281C277.892 17.6875 278.291 16.6875 278.978 16.3281C279.087 16.2812 279.189 16.2578 279.283 16.2578C279.455 16.2578 279.642 16.4375 279.845 16.7969C280.127 17.2969 280.431 17.6094 280.759 17.7344C280.916 17.7812 281.087 17.8047 281.275 17.8047C281.9 17.8047 282.345 17.5078 282.611 16.9141C282.705 16.7109 282.752 16.5 282.752 16.2812C282.752 15.5 282.369 15.0078 281.603 14.8047C281.416 14.7578 281.22 14.7344 281.017 14.7344C280.048 14.7344 279.197 15.1172 278.462 15.8828C278.134 16.2578 277.884 16.6641 277.712 17.1016L277.548 14.9219H273.447V15.5312H274.806V23.1719C274.806 23.8594 274.533 24.25 273.986 24.3438C273.83 24.375 273.65 24.3906 273.447 24.3906V25H280.08C280.08 24.6406 279.978 24.4453 279.775 24.4141C279.697 24.3984 279.611 24.3906 279.517 24.3906Z" fill="white"/>
</g>
<g filter="url(#filter1_d)">
<path d="M88.0875 49.0859C88.0875 47.7891 87.3766 46.6797 85.9547 45.7578C85.7516 45.6484 84.9313 45.2109 83.4938 44.4453C82.1813 43.7578 81.3609 43.0781 81.0328 42.4062C80.8766 42.0781 80.7984 41.7344 80.7984 41.375C80.7984 40.4531 81.2438 39.8438 82.1344 39.5469C82.4313 39.4531 82.7438 39.4062 83.0719 39.4062C84.3531 39.4062 85.3141 39.8906 85.9547 40.8594C86.3453 41.4688 86.5484 42.1953 86.5641 43.0391H87.4781V38.7969C87.0406 38.7969 86.7828 38.9453 86.7047 39.2422C86.6891 39.3516 86.6813 39.4766 86.6813 39.6172C85.3844 39.0078 84.0172 38.7031 82.5797 38.7031C80.6891 38.7031 79.2672 39.1953 78.3141 40.1797C77.7047 40.8203 77.4 41.5781 77.4 42.4531C77.4 43.75 78.1422 44.8594 79.6266 45.7812C79.8141 45.9062 80.6578 46.3516 82.1578 47.1172C83.5016 47.8203 84.3375 48.5 84.6656 49.1562C84.8063 49.4688 84.8766 49.7891 84.8766 50.1172C84.8766 51.2422 84.3766 51.9922 83.3766 52.3672C83.0172 52.4922 82.6188 52.5547 82.1813 52.5547C80.525 52.5547 79.3609 51.7969 78.6891 50.2812C78.4078 49.6406 78.2359 48.9062 78.1734 48.0781H77.2594V53.0469C77.6813 53.0469 77.9313 52.9219 78.0094 52.6719C78.0406 52.5156 78.0563 52.3047 78.0563 52.0391C79.2594 52.8359 80.7125 53.2344 82.4156 53.2344C84.4 53.2344 85.9234 52.7266 86.9859 51.7109C87.7203 50.9922 88.0875 50.1172 88.0875 49.0859ZM95.3625 47.9141C95.3625 45.7266 95.6281 44.3281 96.1594 43.7188C96.4875 43.3594 96.9484 43.1797 97.5422 43.1797C98.5422 43.1797 99.1828 43.6875 99.4641 44.7031C99.6516 45.3594 99.7453 46.3984 99.7453 47.8203C99.7453 50.1016 99.4484 51.5391 98.8547 52.1328C98.5109 52.4609 98.0656 52.625 97.5187 52.625C96.55 52.625 95.925 52.125 95.6437 51.125C95.4562 50.4531 95.3625 49.3828 95.3625 47.9141ZM97.6594 42.5703C95.7375 42.5703 94.2609 43.2266 93.2297 44.5391C92.5109 45.4766 92.1516 46.5703 92.1516 47.8203C92.1516 49.5859 92.7609 50.9844 93.9797 52.0156C94.9484 52.8281 96.1047 53.2344 97.4484 53.2344C99.2922 53.2344 100.737 52.5703 101.784 51.2422C102.566 50.2422 102.956 49.0859 102.956 47.7734C102.956 46.0234 102.339 44.6562 101.105 43.6719C100.152 42.9375 99.0031 42.5703 97.6594 42.5703ZM112.388 52.3906H111.216V37.7656H106.411V38.375H108.239V51.125C108.239 51.7656 107.981 52.1562 107.466 52.2969C107.2 52.3594 106.848 52.3906 106.411 52.3906V53H112.95C112.95 52.6406 112.848 52.4453 112.645 52.4141C112.567 52.3984 112.481 52.3906 112.388 52.3906ZM127.912 52.3906H127.116V42.9219H122.991V43.5312H124.139L124.116 49.4375C124.006 50.6562 123.561 51.4609 122.78 51.8516C122.545 51.9609 122.311 52.0156 122.077 52.0156C121.186 52.0156 120.662 51.4922 120.506 50.4453C120.475 50.2422 120.459 50.0312 120.459 49.8125V42.9219H116.123V43.5312H117.483V49.4141C117.514 51.9453 118.631 53.2188 120.834 53.2344C122.241 53.2344 123.311 52.6094 124.045 51.3594C124.092 51.2656 124.139 51.1719 124.186 51.0781L124.303 53H128.475C128.475 52.6562 128.381 52.4609 128.194 52.4141C128.116 52.3984 128.022 52.3906 127.912 52.3906ZM131.695 43.6484H133.312V49.5078C133.312 51.7734 134.25 53.0156 136.125 53.2344C136.312 53.25 136.5 53.2578 136.688 53.2578C137.891 53.2578 138.719 52.8672 139.172 52.0859C139.391 51.6953 139.562 51.1797 139.688 50.5391L139.055 50.4453C138.742 51.7109 138.281 52.4062 137.672 52.5312C137.578 52.5469 137.484 52.5547 137.391 52.5547C136.812 52.5547 136.461 52.1484 136.336 51.3359C136.305 51.1484 136.289 50.9531 136.289 50.75V43.6484H139.383V43.0391H136.289V40.3203L133.312 40.8125V43.0391H131.695V43.6484ZM147.994 52.3906H147.127V42.9219H142.791V43.5312H144.15V51.1719C144.15 51.8594 143.877 52.25 143.33 52.3438C143.173 52.375 142.994 52.3906 142.791 52.3906V53H148.556C148.556 52.6406 148.455 52.4453 148.252 52.4141C148.173 52.3984 148.088 52.3906 147.994 52.3906ZM147.338 39.8516C147.338 39.1641 147.033 38.6562 146.423 38.3281C146.158 38.1719 145.877 38.0938 145.58 38.0938C144.908 38.0938 144.4 38.3984 144.056 39.0078C143.916 39.2734 143.845 39.5547 143.845 39.8516C143.845 40.5391 144.15 41.0391 144.759 41.3516C145.025 41.4922 145.298 41.5625 145.58 41.5625C146.267 41.5625 146.775 41.2734 147.103 40.6953C147.259 40.4297 147.338 40.1484 147.338 39.8516ZM155.339 47.9141C155.339 45.7266 155.605 44.3281 156.136 43.7188C156.464 43.3594 156.925 43.1797 157.519 43.1797C158.519 43.1797 159.159 43.6875 159.441 44.7031C159.628 45.3594 159.722 46.3984 159.722 47.8203C159.722 50.1016 159.425 51.5391 158.831 52.1328C158.488 52.4609 158.042 52.625 157.495 52.625C156.527 52.625 155.902 52.125 155.62 51.125C155.433 50.4531 155.339 49.3828 155.339 47.9141ZM157.636 42.5703C155.714 42.5703 154.238 43.2266 153.206 44.5391C152.488 45.4766 152.128 46.5703 152.128 47.8203C152.128 49.5859 152.738 50.9844 153.956 52.0156C154.925 52.8281 156.081 53.2344 157.425 53.2344C159.269 53.2344 160.714 52.5703 161.761 51.2422C162.542 50.2422 162.933 49.0859 162.933 47.7734C162.933 46.0234 162.316 44.6562 161.081 43.6719C160.128 42.9375 158.98 42.5703 157.636 42.5703ZM171.427 52.3906H170.841L170.864 46.3906C170.973 45.1562 171.427 44.3438 172.223 43.9531C172.442 43.8438 172.669 43.7891 172.903 43.7891C173.794 43.7891 174.317 44.3125 174.473 45.3594C174.505 45.5625 174.52 45.7734 174.52 45.9922V51.1719C174.52 51.8281 174.348 52.2109 174.005 52.3203C173.848 52.3672 173.661 52.3906 173.442 52.3906V53H178.856C178.856 52.6406 178.755 52.4453 178.552 52.4141C178.458 52.3984 178.364 52.3906 178.27 52.3906H177.497V46.3906C177.497 44.4531 176.809 43.2422 175.434 42.7578C175.059 42.6328 174.669 42.5703 174.262 42.5703C173.122 42.5703 172.153 43.0234 171.356 43.9297C171.122 44.1953 170.934 44.4688 170.794 44.75L170.677 42.9219H166.505V43.5312H167.864V51.1719C167.864 51.8906 167.528 52.2891 166.856 52.3672C166.747 52.3828 166.63 52.3906 166.505 52.3906V53H171.989C171.989 52.6406 171.887 52.4453 171.684 52.4141C171.606 52.3984 171.52 52.3906 171.427 52.3906ZM186.202 52.5781C187.248 52.5781 187.85 52.2031 188.006 51.4531C188.022 51.3438 188.03 51.2422 188.03 51.1484C188.03 50.3516 187.53 49.6875 186.53 49.1562C186.311 49.0312 185.959 48.8672 185.475 48.6641C184.303 48.1484 183.53 47.6719 183.155 47.2344C182.748 46.7656 182.545 46.2109 182.545 45.5703C182.545 44.2422 183.272 43.3438 184.725 42.875C185.334 42.6719 186.014 42.5703 186.764 42.5703C187.983 42.5703 188.936 42.7891 189.623 43.2266C189.623 42.7578 189.764 42.5 190.045 42.4531C190.108 42.4375 190.17 42.4297 190.233 42.4297V45.3594H189.483C189.42 43.9375 188.647 43.2188 187.162 43.2031C186.162 43.2031 185.545 43.5312 185.311 44.1875C185.264 44.3438 185.241 44.5 185.241 44.6562C185.241 45.3281 185.709 45.8984 186.647 46.3672C186.834 46.4766 187.147 46.625 187.584 46.8125C188.803 47.3594 189.616 47.8594 190.022 48.3125C190.491 48.8438 190.725 49.4766 190.725 50.2109C190.725 51.5703 190.022 52.4844 188.616 52.9531C188.037 53.1406 187.389 53.2344 186.67 53.2344C185.295 53.2344 184.139 52.9922 183.202 52.5078C183.202 52.9141 183.1 53.1484 182.897 53.2109C182.803 53.2266 182.694 53.2344 182.569 53.2344V49.6719H183.366C183.397 51.5938 184.342 52.5625 186.202 52.5781ZM206.564 41.0469C206.564 40.25 206.861 39.7266 207.455 39.4766C207.627 39.3984 207.822 39.3594 208.041 39.3594C209.056 39.4219 209.58 39.9844 209.611 41.0469C209.611 41.7656 209.22 42.4219 208.439 43.0156C208.127 43.25 207.775 43.4453 207.384 43.6016C206.837 42.5234 206.564 41.6719 206.564 41.0469ZM207.15 52.5312C205.728 52.5312 204.861 51.8594 204.548 50.5156C204.423 49.9688 204.361 49.2188 204.361 48.2656C204.377 46.5469 204.627 45.4922 205.111 45.1016C206.158 47.1484 207.705 49.3672 209.752 51.7578C208.986 52.2734 208.119 52.5312 207.15 52.5312ZM213.173 45.5234H213.15H213.22L213.947 45.5C214.306 45.5 214.509 45.4062 214.556 45.2188C214.587 45.1094 214.603 44.9922 214.603 44.8672H211.228V45.4766H212.517C212.517 47.0703 212.205 48.4688 211.58 49.6719C209.814 47.4844 208.509 45.6406 207.666 44.1406C208.837 43.7031 209.634 43 210.056 42.0312C210.197 41.6875 210.267 41.3594 210.267 41.0469C210.267 39.9219 209.744 39.1953 208.697 38.8672C208.353 38.7578 207.978 38.7031 207.572 38.7031C206.244 38.7031 205.259 39.125 204.619 39.9688C204.244 40.4688 204.056 41.0625 204.056 41.75C204.072 42.5 204.33 43.4297 204.83 44.5391C202.97 45.0859 201.861 46.1719 201.502 47.7969C201.423 48.1406 201.384 48.5 201.384 48.875C201.384 50.3125 201.955 51.4453 203.095 52.2734C203.986 52.9141 205.087 53.2344 206.4 53.2344C207.853 53.2188 209.103 52.8828 210.15 52.2266L210.853 53H214.955C214.955 52.6406 214.83 52.4453 214.58 52.4141C214.517 52.3984 214.447 52.3906 214.369 52.3906H213.97C213.533 51.9219 212.884 51.1953 212.025 50.2109C212.791 48.8672 213.173 47.3047 213.173 45.5234ZM236.747 52.0859C236.731 52.6797 236.864 53.0078 237.145 53.0703C237.255 53.1016 237.395 53.1172 237.567 53.1172V48.5H236.794C236.216 50.6719 235.192 51.9609 233.723 52.3672C233.317 52.4766 232.864 52.5312 232.364 52.5312C230.38 52.5312 229.137 51.4062 228.637 49.1562C228.45 48.2656 228.356 47.1641 228.356 45.8516C228.372 41.5703 229.77 39.4219 232.552 39.4062C234.02 39.4062 235.106 40.0078 235.809 41.2109C236.137 41.7891 236.427 42.5312 236.677 43.4375H237.497L237.427 38.8203C237.02 38.8203 236.778 38.9453 236.7 39.1953C236.669 39.3516 236.661 39.5547 236.677 39.8047C235.317 39.0703 233.817 38.7031 232.177 38.7031C229.552 38.7031 227.544 39.6172 226.153 41.4453C225.169 42.7578 224.677 44.2656 224.677 45.9688C224.677 47.9844 225.325 49.6797 226.622 51.0547C228.012 52.5078 229.841 53.2344 232.106 53.2344C233.716 53.2344 235.262 52.8516 236.747 52.0859ZM244.35 47.9141C244.35 45.7266 244.616 44.3281 245.147 43.7188C245.475 43.3594 245.936 43.1797 246.53 43.1797C247.53 43.1797 248.17 43.6875 248.452 44.7031C248.639 45.3594 248.733 46.3984 248.733 47.8203C248.733 50.1016 248.436 51.5391 247.842 52.1328C247.498 52.4609 247.053 52.625 246.506 52.625C245.538 52.625 244.913 52.125 244.631 51.125C244.444 50.4531 244.35 49.3828 244.35 47.9141ZM246.647 42.5703C244.725 42.5703 243.248 43.2266 242.217 44.5391C241.498 45.4766 241.139 46.5703 241.139 47.8203C241.139 49.5859 241.748 50.9844 242.967 52.0156C243.936 52.8281 245.092 53.2344 246.436 53.2344C248.28 53.2344 249.725 52.5703 250.772 51.2422C251.553 50.2422 251.944 49.0859 251.944 47.7734C251.944 46.0234 251.327 44.6562 250.092 43.6719C249.139 42.9375 247.991 42.5703 246.647 42.5703ZM260.438 52.3906H259.852L259.875 46.3906C259.984 45.1562 260.438 44.3438 261.234 43.9531C261.453 43.8438 261.68 43.7891 261.914 43.7891C262.805 43.7891 263.328 44.3125 263.484 45.3594C263.516 45.5625 263.531 45.7734 263.531 45.9922V51.1719C263.531 51.8281 263.359 52.2109 263.016 52.3203C262.859 52.3672 262.672 52.3906 262.453 52.3906V53H267.867C267.867 52.6406 267.766 52.4453 267.562 52.4141C267.469 52.3984 267.375 52.3906 267.281 52.3906H266.508V46.3906C266.508 44.4531 265.82 43.2422 264.445 42.7578C264.07 42.6328 263.68 42.5703 263.273 42.5703C262.133 42.5703 261.164 43.0234 260.367 43.9297C260.133 44.1953 259.945 44.4688 259.805 44.75L259.688 42.9219H255.516V43.5312H256.875V51.1719C256.875 51.8906 256.539 52.2891 255.867 52.3672C255.758 52.3828 255.641 52.3906 255.516 52.3906V53H261C261 52.6406 260.898 52.4453 260.695 52.4141C260.617 52.3984 260.531 52.3906 260.438 52.3906ZM275.212 52.5781C276.259 52.5781 276.861 52.2031 277.017 51.4531C277.033 51.3438 277.041 51.2422 277.041 51.1484C277.041 50.3516 276.541 49.6875 275.541 49.1562C275.322 49.0312 274.97 48.8672 274.486 48.6641C273.314 48.1484 272.541 47.6719 272.166 47.2344C271.759 46.7656 271.556 46.2109 271.556 45.5703C271.556 44.2422 272.283 43.3438 273.736 42.875C274.345 42.6719 275.025 42.5703 275.775 42.5703C276.994 42.5703 277.947 42.7891 278.634 43.2266C278.634 42.7578 278.775 42.5 279.056 42.4531C279.119 42.4375 279.181 42.4297 279.244 42.4297V45.3594H278.494C278.431 43.9375 277.658 43.2188 276.173 43.2031C275.173 43.2031 274.556 43.5312 274.322 44.1875C274.275 44.3438 274.252 44.5 274.252 44.6562C274.252 45.3281 274.72 45.8984 275.658 46.3672C275.845 46.4766 276.158 46.625 276.595 46.8125C277.814 47.3594 278.627 47.8594 279.033 48.3125C279.502 48.8438 279.736 49.4766 279.736 50.2109C279.736 51.5703 279.033 52.4844 277.627 52.9531C277.048 53.1406 276.4 53.2344 275.681 53.2344C274.306 53.2344 273.15 52.9922 272.212 52.5078C272.212 52.9141 272.111 53.1484 271.908 53.2109C271.814 53.2266 271.705 53.2344 271.58 53.2344V49.6719H272.377C272.408 51.5938 273.353 52.5625 275.212 52.5781ZM294.98 52.3906H294.183V42.9219H290.058V43.5312H291.206L291.183 49.4375C291.073 50.6562 290.628 51.4609 289.847 51.8516C289.613 51.9609 289.378 52.0156 289.144 52.0156C288.253 52.0156 287.73 51.4922 287.573 50.4453C287.542 50.2422 287.527 50.0312 287.527 49.8125V42.9219H283.191V43.5312H284.55V49.4141C284.581 51.9453 285.698 53.2188 287.902 53.2344C289.308 53.2344 290.378 52.6094 291.113 51.3594C291.159 51.2656 291.206 51.1719 291.253 51.0781L291.37 53H295.542C295.542 52.6562 295.448 52.4609 295.261 52.4141C295.183 52.3984 295.089 52.3906 294.98 52.3906ZM304.739 52.3906H303.567V37.7656H298.762V38.375H300.591V51.125C300.591 51.7656 300.333 52.1562 299.817 52.2969C299.552 52.3594 299.2 52.3906 298.762 52.3906V53H305.302C305.302 52.6406 305.2 52.4453 304.997 52.4141C304.919 52.3984 304.833 52.3906 304.739 52.3906ZM308.475 43.6484H310.092V49.5078C310.092 51.7734 311.03 53.0156 312.905 53.2344C313.092 53.25 313.28 53.2578 313.467 53.2578C314.67 53.2578 315.498 52.8672 315.952 52.0859C316.17 51.6953 316.342 51.1797 316.467 50.5391L315.834 50.4453C315.522 51.7109 315.061 52.4062 314.452 52.5312C314.358 52.5469 314.264 52.5547 314.17 52.5547C313.592 52.5547 313.241 52.1484 313.116 51.3359C313.084 51.1484 313.069 50.9531 313.069 50.75V43.6484H316.163V43.0391H313.069V40.3203L310.092 40.8125V43.0391H308.475V43.6484ZM328.078 53.2344C329.219 53.2344 329.93 52.8203 330.211 51.9922C330.305 51.6797 330.375 51.2812 330.422 50.7969L329.812 50.7734C329.719 51.8516 329.445 52.3984 328.992 52.4141C328.648 52.3828 328.477 51.9922 328.477 51.2422V46.3438C328.477 44.3906 327.57 43.1875 325.758 42.7344C325.289 42.625 324.781 42.5703 324.234 42.5703C322.109 42.5703 320.773 43.0312 320.227 43.9531C320.086 44.1875 320.016 44.4375 320.016 44.7031C320.016 45.3125 320.305 45.6953 320.883 45.8516C321.023 45.8984 321.172 45.9219 321.328 45.9219C322 45.9219 322.453 45.5938 322.688 44.9375C322.719 44.8438 322.766 44.6875 322.828 44.4688C323 43.8438 323.219 43.4531 323.484 43.2969C323.656 43.2188 323.852 43.1797 324.07 43.1797C324.805 43.1797 325.25 43.625 325.406 44.5156C325.469 44.8438 325.5 45.2344 325.5 45.6875V47.2109C321.484 47.2891 319.469 48.3516 319.453 50.3984C319.453 51.7891 320.062 52.6797 321.281 53.0703C321.641 53.1797 322.039 53.2344 322.477 53.2344C323.805 53.2344 324.781 52.7344 325.406 51.7344C325.531 51.5312 325.633 51.3203 325.711 51.1016C326.039 52.4453 326.828 53.1562 328.078 53.2344ZM323.695 52.2266C322.914 52.1953 322.516 51.5 322.5 50.1406C322.5 49.1094 322.922 48.4375 323.766 48.125C324.219 47.9844 324.797 47.8984 325.5 47.8672V50.1406C325.203 51.2344 324.727 51.9062 324.07 52.1562C323.93 52.2031 323.805 52.2266 323.695 52.2266ZM338.33 52.3906H337.744L337.767 46.3906C337.877 45.1562 338.33 44.3438 339.127 43.9531C339.345 43.8438 339.572 43.7891 339.806 43.7891C340.697 43.7891 341.22 44.3125 341.377 45.3594C341.408 45.5625 341.423 45.7734 341.423 45.9922V51.1719C341.423 51.8281 341.252 52.2109 340.908 52.3203C340.752 52.3672 340.564 52.3906 340.345 52.3906V53H345.759C345.759 52.6406 345.658 52.4453 345.455 52.4141C345.361 52.3984 345.267 52.3906 345.173 52.3906H344.4V46.3906C344.4 44.4531 343.712 43.2422 342.337 42.7578C341.962 42.6328 341.572 42.5703 341.166 42.5703C340.025 42.5703 339.056 43.0234 338.259 43.9297C338.025 44.1953 337.837 44.4688 337.697 44.75L337.58 42.9219H333.408V43.5312H334.767V51.1719C334.767 51.8906 334.431 52.2891 333.759 52.3672C333.65 52.3828 333.533 52.3906 333.408 52.3906V53H338.892C338.892 52.6406 338.791 52.4453 338.587 52.4141C338.509 52.3984 338.423 52.3906 338.33 52.3906ZM348.862 43.6484H350.48V49.5078C350.48 51.7734 351.417 53.0156 353.292 53.2344C353.48 53.25 353.667 53.2578 353.855 53.2578C355.058 53.2578 355.886 52.8672 356.339 52.0859C356.558 51.6953 356.73 51.1797 356.855 50.5391L356.222 50.4453C355.909 51.7109 355.448 52.4062 354.839 52.5312C354.745 52.5469 354.652 52.5547 354.558 52.5547C353.98 52.5547 353.628 52.1484 353.503 51.3359C353.472 51.1484 353.456 50.9531 353.456 50.75V43.6484H356.55V43.0391H353.456V40.3203L350.48 40.8125V43.0391H348.862V43.6484Z" fill="white"/>
</g>
<defs>
<filter id="filter0_d" x="118.289" y="9.76562" width="168.462" height="27.8047" filterUnits="userSpaceOnUse" color-interpolation-filters="sRGB">
<feFlood flood-opacity="0" result="BackgroundImageFix"/>
<feColorMatrix in="SourceAlpha" type="matrix" values="0 0 0 0 0 0 0 0 0 0 0 0 0 0 0 0 0 0 127 0"/>
<feOffset dy="4"/>
<feGaussianBlur stdDeviation="2"/>
<feColorMatrix type="matrix" values="0 0 0 0 0 0 0 0 0 0 0 0 0 0 0 0 0 0 0.25 0"/>
<feBlend mode="normal" in2="BackgroundImageFix" result="effect1_dropShadow"/>
<feBlend mode="normal" in="SourceGraphic" in2="effect1_dropShadow" result="shape"/>
</filter>
<filter id="filter1_d" x="73.2594" y="37.7656" width="287.595" height="23.4922" filterUnits="userSpaceOnUse" color-interpolation-filters="sRGB">
<feFlood flood-opacity="0" result="BackgroundImageFix"/>
<feColorMatrix in="SourceAlpha" type="matrix" values="0 0 0 0 0 0 0 0 0 0 0 0 0 0 0 0 0 0 127 0"/>
<feOffset dy="4"/>
<feGaussianBlur stdDeviation="2"/>
<feColorMatrix type="matrix" values="0 0 0 0 0 0 0 0 0 0 0 0 0 0 0 0 0 0 0.25 0"/>
<feBlend mode="normal" in2="BackgroundImageFix" result="effect1_dropShadow"/>
<feBlend mode="normal" in="SourceGraphic" in2="effect1_dropShadow" result="shape"/>
</filter>
<clipPath id="clip0">
<rect width="69.2874" height="54" fill="white"/>
</clipPath>
</defs>
</svg>
